<?xml version="1.0" encoding="UTF-8" standalone="no"?>
<!-- Created with Inkscape (http://www.inkscape.org/) -->

<svg
   width="3840"
   height="2160"
   viewBox="0 0 3840 2160"
   version="1.1"
   id="svg1"
   inkscape:version="1.4 (e7c3feb100, 2024-10-09)"
   sodipodi:docname="arraylinux-wallpaper.svg"
   xml:space="preserve"
   inkscape:export-filename="arraylinux-wallpaper.png"
   inkscape:export-xdpi="96"
   inkscape:export-ydpi="96"
   xmlns:inkscape="http://www.inkscape.org/namespaces/inkscape"
   xmlns:sodipodi="http://sodipodi.sourceforge.net/DTD/sodipodi-0.dtd"
   xmlns:xlink="http://www.w3.org/1999/xlink"
   xmlns="http://www.w3.org/2000/svg"
   xmlns:svg="http://www.w3.org/2000/svg"><sodipodi:namedview
     id="namedview1"
     pagecolor="#505050"
     bordercolor="#eeeeee"
     borderopacity="1"
     inkscape:showpageshadow="0"
     inkscape:pageopacity="0"
     inkscape:pagecheckerboard="0"
     inkscape:deskcolor="#505050"
     inkscape:document-units="px"
     inkscape:zoom="0.10602679"
     inkscape:cx="1848.5895"
     inkscape:cy="1848.5895"
     inkscape:window-width="1322"
     inkscape:window-height="761"
     inkscape:window-x="0"
     inkscape:window-y="0"
     inkscape:window-maximized="1"
     inkscape:current-layer="layer1" /><defs
     id="defs1"><linearGradient
       id="linearGradient7"
       inkscape:collect="always"><stop
         style="stop-color:#00425e;stop-opacity:1;"
         offset="0.21448396"
         id="stop6" /><stop
         style="stop-color:#13264d;stop-opacity:1;"
         offset="0.73771584"
         id="stop7" /></linearGradient><linearGradient
       id="linearGradient3"
       inkscape:collect="always"><stop
         style="stop-color:#003d69;stop-opacity:1;"
         offset="0"
         id="stop3" /><stop
         style="stop-color:#0a3f6b;stop-opacity:1;"
         offset="1"
         id="stop4" /></linearGradient><linearGradient
       id="linearGradient1"
       inkscape:collect="always"><stop
         style="stop-color:#0a4e75;stop-opacity:1;"
         offset="0.00136719"
         id="stop1" /><stop
         style="stop-color:#002946;stop-opacity:1;"
         offset="1"
         id="stop2" /></linearGradient><linearGradient
       inkscape:collect="always"
       xlink:href="#linearGradient1"
       id="linearGradient2"
       x1="1941.4594"
       y1="226.27223"
       x2="2040.9661"
       y2="1611.0741"
       gradientUnits="userSpaceOnUse" /><linearGradient
       inkscape:collect="always"
       xlink:href="#linearGradient3"
       id="linearGradient4"
       x1="1795.2"
       y1="3997.4316"
       x2="1795.2"
       y2="-463.3689"
       gradientUnits="userSpaceOnUse"
       gradientTransform="translate(44.8,441.6)" /><linearGradient
       inkscape:collect="always"
       xlink:href="#linearGradient7"
       id="linearGradient6"
       x1="1888"
       y1="-416.00003"
       x2="1888"
       y2="3910.3999"
       gradientUnits="userSpaceOnUse"
       gradientTransform="translate(25.6,115.2)" /><inkscape:path-effect
       effect="perp_bisector"
       id="path-effect45"
       is_visible="true"
       lpeversion="1"
       length-left="200"
       length-right="200" /><inkscape:path-effect
       effect="fillet_chamfer"
       id="path-effect32"
       is_visible="true"
       lpeversion="1"
       nodesatellites_param="F,0,0,1,0,30.160516,0,1 @ F,0,0,1,0,0,0,1 @ F,0,0,1,0,42.509435,0,1 @ F,0,0,1,0,42.509435,0,1 @ F,0,0,1,0,0,0,1 @ F,0,0,1,0,42.509435,0,1 @ F,0,0,1,0,0,0,1 @ F,0,0,1,0,30.160516,0,1 | F,0,0,1,0,34.710374,0,1 @ F,0,0,1,0,0,0,1 @ F,0,0,1,0,0,0,1"
       radius="0"
       unit="px"
       method="auto"
       mode="F"
       chamfer_steps="1"
       flexible="false"
       use_knot_distance="true"
       apply_no_radius="true"
       apply_with_radius="true"
       only_selected="false"
       hide_knots="false" /><inkscape:path-effect
       effect="fillet_chamfer"
       id="path-effect20"
       is_visible="true"
       lpeversion="1"
       nodesatellites_param="F,0,0,1,0,29.232038,0,1 @ F,0,0,1,0,21.189638,0,1 @ F,0,0,1,0,0,0,1 | F,0,1,1,0,29.232038,0,1 @ F,0,1,1,0,29.232038,0,1 @ F,0,0,1,0,0,0,1 @ F,0,0,1,0,54.576696,0,1 @ F,0,0,1,0,0,0,1 @ F,0,0,1,0,21.189638,0,1 @ F,0,0,1,0,54.576696,0,1 @ F,0,0,1,0,0,0,1"
       radius="0"
       unit="px"
       method="auto"
       mode="F"
       chamfer_steps="1"
       flexible="false"
       use_knot_distance="true"
       apply_no_radius="true"
       apply_with_radius="true"
       only_selected="false"
       hide_knots="false" /><inkscape:path-effect
       effect="fillet_chamfer"
       id="path-effect1"
       is_visible="true"
       lpeversion="1"
       nodesatellites_param="F,0,0,1,0,29.232038,0,1 @ F,0,0,1,0,21.189638,0,1 @ F,0,0,1,0,0,0,1 | F,0,1,1,0,29.232038,0,1 @ F,0,1,1,0,29.232038,0,1 @ F,0,0,1,0,0,0,1 @ F,0,0,1,0,54.576696,0,1 @ F,0,0,1,0,0,0,1 @ F,0,0,1,0,21.189638,0,1 @ F,0,0,1,0,54.576696,0,1 @ F,0,0,1,0,0,0,1"
       radius="0"
       unit="px"
       method="auto"
       mode="F"
       chamfer_steps="1"
       flexible="false"
       use_knot_distance="true"
       apply_no_radius="true"
       apply_with_radius="true"
       only_selected="false"
       hide_knots="false" /><filter
       inkscape:collect="always"
       style="color-interpolation-filters:sRGB"
       id="filter14"
       x="-0.35368751"
       y="-0.39777029"
       width="1.707375"
       height="1.7955406"><feGaussianBlur
         inkscape:collect="always"
         stdDeviation="365.94866"
         id="feGaussianBlur14" /></filter><inkscape:path-effect
       effect="fillet_chamfer"
       id="path-effect5"
       is_visible="true"
       lpeversion="1"
       nodesatellites_param="F,0,0,1,0,0,0,1 @ F,0,0,1,0,0,0,1 @ F,0,0,1,0,0,0,1 @ F,0,0,1,0,0,0,1 @ F,0,0,1,0,0,0,1 @ F,0,0,1,0,0,0,1 @ F,0,0,1,0,0,0,1 @ F,0,0,1,0,0,0,1 @ F,0,0,1,0,0,0,1 @ F,0,0,1,0,0,0,1 @ F,0,0,1,0,0,0,1 @ F,0,0,1,0,0,0,1 @ F,0,0,1,0,0,0,1 @ F,0,0,1,0,0,0,1 @ F,0,0,1,0,0,0,1 | F,0,0,1,0,0,0,1 @ F,0,0,1,0,0,0,1 @ F,0,0,1,0,0,0,1 @ F,0,0,1,0,0,0,1 @ F,0,0,1,0,0,0,1 | F,0,0,1,0,0,0,1 @ F,0,0,1,0,0,0,1 @ F,0,0,1,0,0,0,1 @ F,0,0,1,0,0,0,1 @ F,0,0,1,0,0,0,1 @ F,0,0,1,0,0,0,1 @ F,0,0,1,0,0,0,1 | F,0,0,1,0,0,0,1 @ F,0,0,1,0,0,0,1 @ F,0,0,1,0,0,0,1 @ F,0,0,1,0,0,0,1 @ F,0,0,1,0,0,0,1"
       radius="0"
       unit="px"
       method="auto"
       mode="F"
       chamfer_steps="1"
       flexible="false"
       use_knot_distance="true"
       apply_no_radius="true"
       apply_with_radius="true"
       only_selected="false"
       hide_knots="false" /><filter
       inkscape:collect="always"
       style="color-interpolation-filters:sRGB"
       id="filter9"
       x="-0.0010444092"
       y="-0.0017452706"
       width="1.0020888"
       height="1.0034905"><feGaussianBlur
         inkscape:collect="always"
         stdDeviation="1.1494216"
         id="feGaussianBlur9" /></filter><filter
       inkscape:collect="always"
       style="color-interpolation-filters:sRGB"
       id="filter10"
       x="-0.0013665016"
       y="-0.0012520965"
       width="1.002733"
       height="1.0025042"><feGaussianBlur
         inkscape:collect="always"
         stdDeviation="0.19441733"
         id="feGaussianBlur10" /></filter></defs><g
     inkscape:label="Layer 1"
     inkscape:groupmode="layer"
     id="layer1"><rect
       style="fill:url(#linearGradient2);stroke:none;stroke-width:10.8;stroke-linecap:round;paint-order:markers stroke fill;fill-opacity:1"
       id="rect1"
       width="3982.4253"
       height="2307.9966"
       x="-95.035149"
       y="-72.407738" /><path
       id="path97"
       style="opacity:0.113;mix-blend-mode:color-dodge;fill:#0093ed;fill-opacity:1;stroke:none;stroke-width:6.48126;stroke-linecap:round;stroke-dasharray:none;stroke-opacity:1;paint-order:markers stroke fill;filter:url(#filter9)"
       d="m 398.12517,161.5772 c -17.97259,-0.22916 -35.99044,-0.16914 -53.96465,0.25644 -20.17579,0.51288 -40.34172,1.35694 -60.48694,2.57858 -6.09944,0.4474 -13.49089,0.94118 -20.08739,1.40659 -6.40716,0.52925 -14.20291,1.18071 -21.1426,1.79072 -21.58128,2.02914 -42.47179,4.50241 -64.12074,7.73628 -78.476431,11.84094 -156.376691,31.85522 -228.124581,66.33702 -59.570859,28.81287 -114.939379,68.83269 -154.786229,122.22006 -32.59345,43.32843 -54.1218,95.04624 -60.75322,148.92576 -5.21008,40.09674 -3.17057,80.98354 4.5608,120.62142 1.44044,7.21685 3.2546,15.65917 5.20081,23.27378 2.81375,11.32807 6.136,22.61686 9.60119,33.3442 1.24293,3.55032 2.96325,8.75932 4.42276,12.93708 25.41644,71.35835 64.92283,136.89822 110.14617,197.35952 33.195789,44.17413 69.915729,85.61639 108.686069,124.95855 7.50112,7.5785 15.8577697,15.8768 23.8068397,23.6044 29.6362103,28.7665 60.6342603,56.5557 92.0082403,82.9187 69.184601,58.1714 142.865061,111.4693 218.565951,160.3811 4.73432,3.05 9.61103,5.8697 14.36496,8.8874 23.71465,14.7229 47.38617,29.5075 71.38834,43.7557 9.55046,5.6941 19.26023,11.1136 28.89035,16.667 11.17148,6.4261 22.30094,12.9261 33.55754,19.2034 17.93002,9.9738 35.94843,19.7867 54.09232,29.3694 34.84847,18.4052 70.14979,35.9495 105.56406,53.2402 40.64238,19.4473 81.64648,38.0969 122.82728,55.5735 58.7814,25.0018 118.6386,48.196 178.4971,69.417 90.2001,31.8897 182.1602,60.0604 274.7578,83.1426 75.4384,18.7735 151.5775,34.3777 228.2424,46.1536 33.3045,5.1169 67.2024,9.5684 100.9603,13.235 18.6528,2.0237 38.0135,3.6873 57.0019,5.2538 12.6518,0.8332 25.3151,1.6914 37.9907,2.5152 3.6546,0.2239 7.2452,0.3765 10.9014,0.5751 14.9052,0.9112 29.8081,1.7983 44.555,2.2059 7.1197,0.2074 14.3114,0.1965 21.4733,0.3219 12.2119,0.2183 24.4232,0.3657 36.6368,0.3111 10.1572,-0.055 20.2404,-0.2129 30.2862,-0.4474 14.7561,-0.3493 29.5057,-0.9051 44.2461,-1.6942 2.6942,-0.1473 5.5353,-0.2292 8.1631,-0.3818 27.8944,-1.6734 55.7073,-4.4234 83.4725,-7.5558 17.2044,-2.1486 34.3503,-4.5743 51.4068,-7.5022 83.7279,-14.5543 166.7451,-39.1823 240.5826,-82.0448 57.2581,-33.4986 108.4553,-79.6648 141.0395,-137.9916 29.776,-53.1059 43.4064,-114.8177 40.0263,-175.535 -1.2282,-27.4684 -5.7698,-55.5877 -12.2764,-81.7249 -4.7855,-19.1789 -10.7944,-38.0457 -17.6261,-56.2556 -12.1667,-32.2323 -27.3227,-63.5463 -44.2139,-93.2026 -37.9737,-66.6802 -85.8694,-127.87646 -137.8851,-184.53924 -81.5853,-88.54085 -174.3733,-166.14483 -271.8809,-236.51177 -55.1399,-39.64007 -112.4306,-76.95636 -170.3773,-111.61658 -20.6492,-12.34238 -42.6611,-25.02466 -63.6192,-36.81869 -81.3092,-45.52452 -164.9656,-86.72287 -250.1523,-124.48982 15.0902,39.58057 30.1699,79.165 45.259,118.74614 141.5191,67.67377 277.7057,146.79348 404.5116,239.22895 92.7504,67.91822 180.6338,143.17769 257.2173,229.11595 54.3947,61.43576 103.3441,128.70686 137.2672,203.73186 22.3777,50.1796 37.5477,104.8175 35.3799,160.1571 -1.8868,45.4324 -16.9572,90.4141 -44.0759,127.0368 -31.9006,43.789 -77.5363,75.5951 -125.9281,98.829 -64.7319,30.9266 -135.137,48.1272 -205.821,58.7495 -10.4577,1.5366 -20.9887,2.3404 -31.4792,3.5701 0.054,0.1253 0.093,0.2509 0.1363,0.371 -6.7106,0.6312 -13.4193,1.2664 -20.1304,1.8973 -32.9803,3.2768 -66.0456,5.4648 -99.1907,6.1697 -3.3386,0.076 -6.6783,-0.055 -10.0176,0 -21.6407,0.311 -43.2825,0.2945 -64.9194,-0.2892 -4.8414,-0.1364 -9.6744,-0.4311 -14.5146,-0.6073 -16.3504,-0.5761 -32.7041,-1.0618 -49.0203,-2.057 -3.7035,-0.2344 -7.3803,-0.7546 -11.0824,-1.0121 -27.1788,-1.8675 -54.3242,-4.1864 -81.3949,-6.9697 -0.06,-0.1692 -0.1198,-0.3438 -0.1801,-0.5129 -113.3118,-12.6019 -225.587,-34.2537 -335.9905,-62.5859 -153.9291,-39.7633 -304.3516,-92.7138 -449.8345,-156.7683 0,0 -0.055,0 -0.055,0 -0.4692,-0.2076 -0.9286,-0.4311 -1.3956,-0.6395 -22.7844,-10.0454 -45.4651,-20.3182 -67.9996,-30.9037 -3.2289,-1.5207 -6.3673,-3.2317 -9.5908,-4.7637 -1.8054,-0.8567 -3.6425,-1.6435 -5.4458,-2.5045 -29.35572,-13.9416 -58.40374,-28.5165 -87.22371,-43.5319 -10.25211,-5.3333 -20.3149,-11.0024 -30.49936,-16.464 -20.89162,-11.2343 -41.68066,-22.6445 -62.2662,-34.4316 -14.28912,-8.1613 -28.46476,-16.4819 -42.59401,-24.9151 -19.1893,-11.4604 -38.16745,-23.2528 -57.06594,-35.1877 -11.69907,-7.417 -23.56513,-14.5586 -35.13436,-22.1766 -1.01976,-0.6662 -2.07171,-1.2821 -3.09037,-1.95 0,-0.054 0,-0.065 0.0547,-0.098 -29.67795,-19.6066 -58.99496,-39.7589 -87.74619,-60.7216 C 150.57557,1068.8744 55.898189,987.0363 -24.652681,892.29514 -68.557811,840.19431 -108.18424,783.97298 -137.90009,722.50449 c -24.29136,-50.88247 -41.71394,-106.29464 -41.75214,-163.11996 0.14187,-43.65634 11.63416,-87.62749 35.46501,-124.42599 28.09974,-44.48458 70.593929,-78.11305 116.667879,-102.5479 63.57021,-33.93836 133.967711,-52.94162 204.690951,-64.96262 64.75474,-10.82991 130.44357,-15.12117 196.04838,-15.64388 106.5751,-0.0764 212.82773,10.0999 317.92801,27.44064 10.9227,-28.63063 21.8699,-57.25307 32.8008,-85.88099 -34.6216,-5.99576 -69.3265,-11.51193 -104.28517,-15.92106 -55.6697,-7.0406 -111.56257,-11.9255 -167.83026,-14.38623 -17.78923,-0.75569 -35.71544,-1.2822 -53.68746,-1.513 z M 1026.51,324.7397 c -11.6625,-1.22491 -23.6397,5.83045 -28.2186,16.62382 -0.921,2.49345 -1.8388,4.98802 -2.7598,7.48094 21.2354,6.16872 42.3938,12.6179 63.4813,19.27768 -2.5818,-6.94678 -5.1431,-13.90828 -7.7265,-20.85452 -2.7623,-11.56868 -12.7412,-21.35483 -24.7764,-22.52792 z" /><path
       id="path32"
       style="font-size:591.54px;-inkscape-font-specification:sans-serif;opacity:0.113;mix-blend-mode:color-dodge;fill:#0093ed;fill-opacity:1;stroke:none;stroke-width:1.71053;stroke-linecap:round;stroke-dasharray:none;stroke-opacity:1;paint-order:markers stroke fill;filter:url(#filter10)"
       d="m 248.33398,69.671875 c -15.69498,2.06e-4 -29.76149,9.686862 -35.35937,24.349609 L 132.48633,304.8457 c 8.18414,5.27518 16.53777,10.30315 24.9707,15.01758 13.59857,7.58564 19.50371,10.71172 33.69083,17.02558 35.46461,-10.0302 128.57294,-32.31863 134.01415,-17.08833 4.20736,11.77666 22.14463,62.0022 22.14463,62.0022 1.36818,0.13083 2.83115,0.27386 4.0957,0.39258 5.62451,0.48584 11.31231,0.86133 16.9961,1.07617 4.38314,0.16512 8.85302,0.24643 13.29883,0.20313 1.72544,-0.007 3.5863,-0.0578 5.22656,-0.0918 3.0906,-0.0973 6.18042,-0.24133 9.26562,-0.44922 0.847,-0.0598 1.69209,-0.16592 2.53907,-0.23437 L 288.71289,94.027344 C 283.12427,79.362579 269.06075,69.671907 253.36719,69.671875 Z m 5.07618,70.890625 c 3.56121,0.88204 6.45504,3.46945 7.72851,6.91016 l 58.22852,157.32422 H 182.33594 l 58.01172,-157.3125 c 1.95421,-5.29876 7.58065,-8.28024 13.0625,-6.92188 z M 122.16797,331.87109 79.998047,442.32812 h 16.429687 c 22.021756,-2e-4 41.658116,-13.86502 49.027346,-34.61718 l 9.36133,-26.36328 c 3.12527,-8.70814 8.07645,-16.64735 14.52148,-23.28516 -5.08162,-2.49361 -10.13226,-5.0508 -15.13477,-7.70117 -10.88167,-5.78096 -21.57918,-11.94378 -32.03515,-18.49024 z m 287.13476,78.57227 c -14.3917,1.64055 -28.94563,1.93488 -43.4082,1.33008 -2.49389,-0.11176 -4.98241,-0.29358 -7.47265,-0.45508 8.32805,18.73649 26.85005,30.86575 47.35351,31.00976 h 15.67969 z"
       sodipodi:nodetypes="cccccsccccccccsccscccccccccccccccccc"
       inkscape:path-effect="#path-effect5"
       inkscape:original-d="m 248.33398,69.671875 c -15.69498,2.06e-4 -29.76149,9.686862 -35.35937,24.349609 L 132.48633,304.8457 c 8.18414,5.27518 16.53777,10.30315 24.9707,15.01758 13.59857,7.58564 19.50371,10.71172 33.69083,17.02558 35.46461,-10.0302 128.57294,-32.31863 134.01415,-17.08833 4.20736,11.77666 22.14463,62.0022 22.14463,62.0022 1.36818,0.13083 2.83115,0.27386 4.0957,0.39258 5.62451,0.48584 11.31231,0.86133 16.9961,1.07617 4.38314,0.16512 8.85302,0.24643 13.29883,0.20313 1.72544,-0.007 3.5863,-0.0578 5.22656,-0.0918 3.0906,-0.0973 6.18042,-0.24133 9.26562,-0.44922 0.847,-0.0598 1.69209,-0.16592 2.53907,-0.23437 L 288.71289,94.027344 C 283.12427,79.362579 269.06075,69.671907 253.36719,69.671875 Z m 5.07618,70.890625 c 3.56121,0.88204 6.45504,3.46945 7.72851,6.91016 l 58.22852,157.32422 H 182.33594 l 58.01172,-157.3125 c 1.95421,-5.29876 7.58065,-8.28024 13.0625,-6.92188 z M 122.16797,331.87109 79.998047,442.32812 h 16.429687 c 22.021756,-2e-4 41.658116,-13.86502 49.027346,-34.61718 l 9.36133,-26.36328 c 3.12527,-8.70814 8.07645,-16.64735 14.52148,-23.28516 -5.08162,-2.49361 -10.13226,-5.0508 -15.13477,-7.70117 -10.88167,-5.78096 -21.57918,-11.94378 -32.03515,-18.49024 z m 287.13476,78.57227 c -14.3917,1.64055 -28.94563,1.93488 -43.4082,1.33008 -2.49389,-0.11176 -4.98241,-0.29358 -7.47265,-0.45508 8.32805,18.73649 26.85005,30.86575 47.35351,31.00976 h 15.67969 z"
       transform="matrix(5.4561556,0,0,5.4561556,-344.41287,-473.34039)" /><path
       style="fill:url(#linearGradient6);stroke:none;stroke-width:10.8;stroke-linecap:round;paint-order:markers stroke fill"
       d="m -307.2,1452.8 c 134.4,-51.2 128,224 396.8,224 268.8,0 473.6,-89.6 646.4,-128 172.8,-38.4 441.6,76.8 627.2,57.6 185.6,-19.2 364.8,-172.8 576,-224 211.2,-51.2 198.4,-102.4 435.2,-19.2 236.8,83.2 294.4,224 595.2,147.2 300.8,-76.8 320,-83.2 492.8,-140.8 172.8,-57.6 492.8,-134.4 492.8,-134.4 l 121.6,256 -74.9161,791.6569 -4122.40737,46.6839 z"
       id="path4"
       sodipodi:nodetypes="csssssssccccc" /><path
       style="fill:url(#linearGradient4);stroke:none;stroke-width:10.8;stroke-linecap:round;paint-order:markers stroke fill"
       d="m -166.4,2054.4 c 576,-211.2 416,-300.8 1158.4,-313.6 742.4,-12.8 934.4,102.4 1452.8,102.4 518.4,0 492.8,288 972.8,-134.4 480,-422.4 652.8,-230.4 652.8,-230.4 l -36.7852,810.4101 -4177.25687,32.0592 z"
       id="path2"
       sodipodi:nodetypes="cssscccc" /><path
       style="opacity:0.279963;mix-blend-mode:normal;fill:#007191;fill-opacity:1;stroke:none;stroke-width:10.8;stroke-linecap:round;paint-order:markers stroke fill;filter:url(#filter14)"
       id="path12"
       sodipodi:type="arc"
       sodipodi:cx="1241.5999"
       sodipodi:cy="937.59998"
       sodipodi:rx="1241.6"
       sodipodi:ry="1104"
       sodipodi:start="1.3089969"
       sodipodi:end="1.1592468"
       sodipodi:open="true"
       sodipodi:arc-type="chord"
       d="M 1562.9496,2003.9821 A 1241.6,1104 0 0 1 55.174461,1263.0494 1241.6,1104 0 0 1 831.43718,-104.41977 1241.6,1104 0 0 1 2397.3215,534.14749 1241.6,1104 0 0 1 1738.277,1949.4183 Z"
       transform="matrix(1.1987286,0,0,1.2730041,-173.29428,128.05287)" /><path
       style="opacity:1;fill:none;fill-opacity:1;stroke:none;stroke-width:10.8;stroke-linecap:round;stroke-opacity:1;paint-order:markers stroke fill"
       d="m 556.63446,1178.8884 18.10193,-45.2548 -201.38401,-242.11337 -15.83919,50.91169 z"
       id="path22" /><text
       xml:space="preserve"
       style="font-size:271.425px;font-family:sans-serif;-inkscape-font-specification:sans-serif;text-align:start;writing-mode:lr-tb;direction:ltr;text-anchor:start;opacity:1;fill:#000000;fill-opacity:1;stroke:none;stroke-width:0.222001;stroke-linecap:round;stroke-dasharray:none;stroke-opacity:1;paint-order:markers stroke fill"
       x="-2474.3098"
       y="512.93109"
       id="text9"><tspan
         sodipodi:role="line"
         id="tspan9"
         x="-2474.3098"
         y="512.93109"
         style="fill:#000000;fill-opacity:1;stroke-width:0.222001">-1226.110</tspan><tspan
         sodipodi:role="line"
         x="-2474.3098"
         y="852.21234"
         style="fill:#000000;fill-opacity:1;stroke-width:0.222001"
         id="tspan10">-1201.825</tspan></text></g></svg>
