<?xml version="1.0" encoding="UTF-8" standalone="no"?>
<!-- Created with Inkscape (http://www.inkscape.org/) -->

<svg
   width="512"
   height="512"
   viewBox="0 0 512 512"
   version="1.1"
   id="svg1"
   inkscape:version="1.4 (e7c3feb100, 2024-10-09)"
   sodipodi:docname="arraylinux-title_black.svg"
   inkscape:export-filename="arraylinux-title_white.png"
   inkscape:export-xdpi="234.39613"
   inkscape:export-ydpi="234.39613"
   xmlns:inkscape="http://www.inkscape.org/namespaces/inkscape"
   xmlns:sodipodi="http://sodipodi.sourceforge.net/DTD/sodipodi-0.dtd"
   xmlns="http://www.w3.org/2000/svg"
   xmlns:svg="http://www.w3.org/2000/svg">
  <sodipodi:namedview
     id="namedview1"
     pagecolor="#505050"
     bordercolor="#eeeeee"
     borderopacity="1"
     inkscape:showpageshadow="0"
     inkscape:pageopacity="0"
     inkscape:pagecheckerboard="0"
     inkscape:deskcolor="#505050"
     inkscape:document-units="px"
     inkscape:zoom="0.5"
     inkscape:cx="1093"
     inkscape:cy="272"
     inkscape:window-width="1322"
     inkscape:window-height="761"
     inkscape:window-x="0"
     inkscape:window-y="0"
     inkscape:window-maximized="1"
     inkscape:current-layer="layer1"
     showguides="true">
    <sodipodi:guide
       position="80.09407,69.67188"
       orientation="0,-1"
       id="guide6"
       inkscape:locked="false" />
  </sodipodi:namedview>
  <defs
     id="defs1">
    <inkscape:path-effect
       effect="fillet_chamfer"
       id="path-effect5"
       is_visible="true"
       lpeversion="1"
       nodesatellites_param="F,0,0,1,0,0,0,1 @ F,0,0,1,0,0,0,1 @ F,0,0,1,0,0,0,1 @ F,0,0,1,0,0,0,1 @ F,0,0,1,0,0,0,1 @ F,0,0,1,0,0,0,1 @ F,0,0,1,0,0,0,1 @ F,0,0,1,0,0,0,1 @ F,0,0,1,0,0,0,1 @ F,0,0,1,0,0,0,1 @ F,0,0,1,0,0,0,1 @ F,0,0,1,0,0,0,1 @ F,0,0,1,0,0,0,1 @ F,0,0,1,0,0,0,1 @ F,0,0,1,0,0,0,1 | F,0,0,1,0,0,0,1 @ F,0,0,1,0,0,0,1 @ F,0,0,1,0,0,0,1 @ F,0,0,1,0,0,0,1 @ F,0,0,1,0,0,0,1 | F,0,0,1,0,0,0,1 @ F,0,0,1,0,0,0,1 @ F,0,0,1,0,0,0,1 @ F,0,0,1,0,0,0,1 @ F,0,0,1,0,0,0,1 @ F,0,0,1,0,0,0,1 @ F,0,0,1,0,0,0,1 | F,0,0,1,0,0,0,1 @ F,0,0,1,0,0,0,1 @ F,0,0,1,0,0,0,1 @ F,0,0,1,0,0,0,1 @ F,0,0,1,0,0,0,1"
       radius="0"
       unit="px"
       method="auto"
       mode="F"
       chamfer_steps="1"
       flexible="false"
       use_knot_distance="true"
       apply_no_radius="true"
       apply_with_radius="true"
       only_selected="false"
       hide_knots="false" />
    <inkscape:path-effect
       effect="perp_bisector"
       id="path-effect45"
       is_visible="true"
       lpeversion="1"
       length-left="200"
       length-right="200" />
    <inkscape:path-effect
       effect="fillet_chamfer"
       id="path-effect32"
       is_visible="true"
       lpeversion="1"
       nodesatellites_param="F,0,0,1,0,30.160516,0,1 @ F,0,0,1,0,0,0,1 @ F,0,0,1,0,42.509435,0,1 @ F,0,0,1,0,42.509435,0,1 @ F,0,0,1,0,0,0,1 @ F,0,0,1,0,42.509435,0,1 @ F,0,0,1,0,0,0,1 @ F,0,0,1,0,30.160516,0,1 | F,0,0,1,0,34.710374,0,1 @ F,0,0,1,0,0,0,1 @ F,0,0,1,0,0,0,1"
       radius="0"
       unit="px"
       method="auto"
       mode="F"
       chamfer_steps="1"
       flexible="false"
       use_knot_distance="true"
       apply_no_radius="true"
       apply_with_radius="true"
       only_selected="false"
       hide_knots="false" />
    <inkscape:path-effect
       effect="fillet_chamfer"
       id="path-effect20"
       is_visible="true"
       lpeversion="1"
       nodesatellites_param="F,0,0,1,0,29.232038,0,1 @ F,0,0,1,0,21.189638,0,1 @ F,0,0,1,0,0,0,1 | F,0,1,1,0,29.232038,0,1 @ F,0,1,1,0,29.232038,0,1 @ F,0,0,1,0,0,0,1 @ F,0,0,1,0,54.576696,0,1 @ F,0,0,1,0,0,0,1 @ F,0,0,1,0,21.189638,0,1 @ F,0,0,1,0,54.576696,0,1 @ F,0,0,1,0,0,0,1"
       radius="0"
       unit="px"
       method="auto"
       mode="F"
       chamfer_steps="1"
       flexible="false"
       use_knot_distance="true"
       apply_no_radius="true"
       apply_with_radius="true"
       only_selected="false"
       hide_knots="false" />
    <inkscape:path-effect
       effect="fillet_chamfer"
       id="path-effect1"
       is_visible="true"
       lpeversion="1"
       nodesatellites_param="F,0,0,1,0,29.232038,0,1 @ F,0,0,1,0,21.189638,0,1 @ F,0,0,1,0,0,0,1 | F,0,1,1,0,29.232038,0,1 @ F,0,1,1,0,29.232038,0,1 @ F,0,0,1,0,0,0,1 @ F,0,0,1,0,54.576696,0,1 @ F,0,0,1,0,0,0,1 @ F,0,0,1,0,21.189638,0,1 @ F,0,0,1,0,54.576696,0,1 @ F,0,0,1,0,0,0,1"
       radius="0"
       unit="px"
       method="auto"
       mode="F"
       chamfer_steps="1"
       flexible="false"
       use_knot_distance="true"
       apply_no_radius="true"
       apply_with_radius="true"
       only_selected="false"
       hide_knots="false" />
  </defs>
  <g
     inkscape:label="Layer 1"
     inkscape:groupmode="layer"
     id="layer1">
    <path
       id="path97"
       style="fill:#00bbed;fill-opacity:1;stroke:none;stroke-width:6.48124;stroke-linecap:round;stroke-dasharray:none;stroke-opacity:1;paint-order:markers stroke fill"
       d="M 136.0918 116.36719 C 132.79785 116.32481 129.49551 116.33672 126.20117 116.41406 C 122.50343 116.50826 118.80744 116.66278 115.11523 116.88672 C 113.99733 116.96882 112.64255 117.05923 111.43359 117.14453 C 110.25933 117.24183 108.83054 117.36086 107.55859 117.47266 C 103.60318 117.84461 99.774397 118.29788 95.806641 118.89062 C 81.423544 121.06081 67.145973 124.72899 53.996094 131.04883 C 43.078022 136.32961 32.93008 143.66442 25.626953 153.44922 C 19.653282 161.39037 15.707625 170.86917 14.492188 180.74414 C 13.537297 188.09305 13.91114 195.58681 15.328125 202.85156 C 15.592113 204.1743 15.924585 205.72163 16.28125 207.11719 C 16.79704 209.19335 17.40585 211.2624 18.041016 213.22852 C 18.268785 213.8792 18.584088 214.83392 18.851562 215.59961 C 23.509913 228.67808 30.750647 240.69015 39.039062 251.77148 C 45.123207 259.8677 51.853246 267.46316 58.958984 274.67383 C 60.333805 276.06283 61.865449 277.58365 63.322266 279 C 68.754032 284.27224 74.43533 289.36551 80.185547 294.19727 C 92.865557 304.85884 106.36974 314.62729 120.24414 323.5918 C 121.11179 324.15077 122.00559 324.66759 122.87695 325.2207 C 127.22332 327.91904 131.56176 330.62883 135.96094 333.24023 C 137.71132 334.28374 139.49089 335.27707 141.25586 336.29492 C 143.30343 337.47265 145.34324 338.66403 147.40625 339.81445 C 150.69254 341.64249 153.99491 343.44096 157.32031 345.19727 C 163.70734 348.57057 170.17734 351.7861 176.66797 354.95508 C 184.11687 358.51939 191.6321 361.93749 199.17969 365.14062 C 209.95315 369.72289 220.92373 373.97388 231.89453 377.86328 C 248.4263 383.70799 265.28069 388.87113 282.25195 393.10156 C 296.07819 396.54242 310.0329 399.4023 324.08398 401.56055 C 330.18796 402.49834 336.40077 403.31424 342.58789 403.98633 C 346.00664 404.35722 349.55498 404.66208 353.03516 404.94922 C 355.35405 405.10187 357.67489 405.25914 359.99805 405.41016 C 360.66792 405.45067 361.32596 405.47913 361.99609 405.51562 C 364.72792 405.68254 367.45928 405.84517 370.16211 405.91992 C 371.46699 405.95815 372.78514 405.95592 374.09766 405.97852 C 376.33587 406.01815 378.57398 406.04535 380.8125 406.03516 C 382.67411 406.02719 384.52207 405.99642 386.36328 405.95312 C 389.06785 405.88864 391.77109 405.78717 394.47266 405.64258 C 394.9665 405.61536 395.48723 405.60087 395.96875 405.57227 C 401.08127 405.26558 406.17877 404.76155 411.26758 404.1875 C 414.42084 403.79366 417.56331 403.34908 420.68945 402.8125 C 436.03498 400.14497 451.2503 395.63114 464.7832 387.77539 C 475.27743 381.63582 484.66077 373.17448 490.63281 362.48438 C 496.09009 352.75115 498.58826 341.44072 497.96875 330.3125 C 497.74372 325.27804 496.9113 320.12439 495.71875 315.33398 C 494.84166 311.81888 493.74042 308.36093 492.48828 305.02344 C 490.25839 299.116 487.48059 293.37676 484.38477 287.94141 C 477.42497 275.72032 468.64666 264.50432 459.11328 254.11914 C 444.16039 237.89145 427.15434 223.66826 409.2832 210.77148 C 399.17718 203.50625 388.67695 196.66696 378.05664 190.31445 C 374.27202 188.05237 370.23765 185.72798 366.39648 183.56641 C 351.49421 175.22269 336.16167 167.67183 320.54883 160.75 C 323.31448 168.00428 326.07832 175.2593 328.84375 182.51367 C 354.78134 194.91692 379.74154 209.41792 402.98242 226.35938 C 419.98164 238.80737 436.08882 252.60085 450.125 268.35156 C 460.09444 279.61145 469.06577 291.94085 475.2832 305.69141 C 479.38462 314.88828 482.16491 324.90227 481.76758 335.04492 C 481.42179 343.37171 478.65971 351.61588 473.68945 358.32812 C 467.84267 366.35366 459.47858 372.18303 450.60938 376.44141 C 438.74543 382.10958 425.84155 385.26211 412.88672 387.20898 C 410.97005 387.49058 409.03992 387.63783 407.11719 387.86328 C 407.12584 387.88599 407.13392 387.90893 407.14258 387.93164 C 405.91267 388.04732 404.68304 388.1637 403.45312 388.2793 C 397.40845 388.87996 391.34831 389.28089 385.27344 389.41016 C 384.66155 389.42421 384.04947 389.40255 383.4375 389.41211 C 379.4712 389.46893 375.5047 389.46602 371.53906 389.35938 C 370.65179 389.33475 369.76602 389.28039 368.87891 389.24805 C 365.88218 389.1425 362.88488 389.05348 359.89453 388.87109 C 359.21572 388.82782 358.54175 388.73278 357.86328 388.68555 C 352.88203 388.34322 347.90674 387.91829 342.94531 387.4082 C 342.93411 387.377 342.92331 387.34565 342.91211 387.31445 C 322.1444 385.00473 301.56666 381.03639 281.33203 375.84375 C 253.12001 368.55593 225.55074 358.85116 198.88672 347.11133 C 198.88343 347.11252 198.88024 347.11404 198.87695 347.11523 C 198.79129 347.07699 198.70674 347.03631 198.62109 346.99805 C 194.4452 345.15692 190.28832 343.27414 186.1582 341.33398 C 185.56642 341.05532 184.9912 340.74175 184.40039 340.46094 C 184.06955 340.30393 183.73283 340.15971 183.40234 340.00195 C 178.022 337.44668 172.69808 334.77543 167.41602 332.02344 C 165.53701 331.04594 163.69275 330.00692 161.82617 329.00586 C 157.99707 326.94694 154.18696 324.85556 150.41406 322.69531 C 147.79515 321.19954 145.19699 319.67449 142.60742 318.12891 C 139.09043 316.02839 135.61214 313.86707 132.14844 311.67969 C 130.00424 310.32028 127.82945 309.01137 125.70898 307.61523 C 125.52207 307.49314 125.32933 307.38016 125.14258 307.25781 C 125.14478 307.25205 125.14624 307.246 125.14844 307.24023 C 119.70912 303.64687 114.33591 299.95333 109.06641 296.11133 C 90.717275 282.66215 73.364897 267.66296 58.601562 250.29883 C 50.554701 240.7498 43.291991 230.44563 37.845703 219.17969 C 33.393585 209.854 30.200375 199.69815 30.193359 189.2832 C 30.219669 181.28196 32.325655 173.22294 36.693359 166.47852 C 41.843466 158.32545 49.631848 152.16199 58.076172 147.68359 C 69.727318 141.46346 82.629682 137.98052 95.591797 135.77734 C 107.45996 133.79241 119.49936 133.00593 131.52344 132.91016 C 151.05643 132.89627 170.53034 134.7612 189.79297 137.93945 C 191.79495 132.69205 193.80132 127.44608 195.80469 122.19922 C 189.45931 121.10031 183.09858 120.08932 176.69141 119.28125 C 166.48834 117.99081 156.24432 117.09547 145.93164 116.64453 C 142.67115 116.506 139.38574 116.40956 136.0918 116.36719 z M 251.26172 146.27148 C 249.12419 146.047 246.92904 147.34008 246.08984 149.31836 C 245.92104 149.77532 245.75278 150.23249 245.58398 150.68945 C 249.47602 151.82003 253.35391 153.00201 257.21875 154.22266 C 256.74557 152.94937 256.27615 151.67353 255.80273 150.40039 C 255.29637 148.2801 253.46752 146.48653 251.26172 146.27148 z " />
    <path
       id="path32"
       style="font-size:591.54px;-inkscape-font-specification:sans-serif;fill:#00bbed;fill-opacity:1;stroke:none;stroke-width:9.33298;stroke-linecap:round;stroke-dasharray:none;stroke-opacity:1;paint-order:markers stroke fill"
       d="m 248.33398,69.671875 c -15.69498,2.06e-4 -29.76149,9.686862 -35.35937,24.349609 L 132.48633,304.8457 c 8.18414,5.27518 16.53777,10.30315 24.9707,15.01758 13.59857,7.58564 19.50371,10.71172 33.69083,17.02558 35.46461,-10.0302 128.57294,-32.31863 134.01415,-17.08833 4.20736,11.77666 22.14463,62.0022 22.14463,62.0022 1.36818,0.13083 2.83115,0.27386 4.0957,0.39258 5.62451,0.48584 11.31231,0.86133 16.9961,1.07617 4.38314,0.16512 8.85302,0.24643 13.29883,0.20313 1.72544,-0.007 3.5863,-0.0578 5.22656,-0.0918 3.0906,-0.0973 6.18042,-0.24133 9.26562,-0.44922 0.847,-0.0598 1.69209,-0.16592 2.53907,-0.23437 L 288.71289,94.027344 C 283.12427,79.362579 269.06075,69.671907 253.36719,69.671875 Z m 5.07618,70.890625 c 3.56121,0.88204 6.45504,3.46945 7.72851,6.91016 l 58.22852,157.32422 H 182.33594 l 58.01172,-157.3125 c 1.95421,-5.29876 7.58065,-8.28024 13.0625,-6.92188 z M 122.16797,331.87109 79.998047,442.32812 h 16.429687 c 22.021756,-2e-4 41.658116,-13.86502 49.027346,-34.61718 l 9.36133,-26.36328 c 3.12527,-8.70814 8.07645,-16.64735 14.52148,-23.28516 -5.08162,-2.49361 -10.13226,-5.0508 -15.13477,-7.70117 -10.88167,-5.78096 -21.57918,-11.94378 -32.03515,-18.49024 z m 287.13476,78.57227 c -14.3917,1.64055 -28.94563,1.93488 -43.4082,1.33008 -2.49389,-0.11176 -4.98241,-0.29358 -7.47265,-0.45508 8.32805,18.73649 26.85005,30.86575 47.35351,31.00976 h 15.67969 z"
       sodipodi:nodetypes="cccccsccccccccsccscccccccccccccccccc"
       inkscape:path-effect="#path-effect5"
       inkscape:original-d="m 248.33398,69.671875 c -15.69498,2.06e-4 -29.76149,9.686862 -35.35937,24.349609 L 132.48633,304.8457 c 8.18414,5.27518 16.53777,10.30315 24.9707,15.01758 13.59857,7.58564 19.50371,10.71172 33.69083,17.02558 35.46461,-10.0302 128.57294,-32.31863 134.01415,-17.08833 4.20736,11.77666 22.14463,62.0022 22.14463,62.0022 1.36818,0.13083 2.83115,0.27386 4.0957,0.39258 5.62451,0.48584 11.31231,0.86133 16.9961,1.07617 4.38314,0.16512 8.85302,0.24643 13.29883,0.20313 1.72544,-0.007 3.5863,-0.0578 5.22656,-0.0918 3.0906,-0.0973 6.18042,-0.24133 9.26562,-0.44922 0.847,-0.0598 1.69209,-0.16592 2.53907,-0.23437 L 288.71289,94.027344 C 283.12427,79.362579 269.06075,69.671907 253.36719,69.671875 Z m 5.07618,70.890625 c 3.56121,0.88204 6.45504,3.46945 7.72851,6.91016 l 58.22852,157.32422 H 182.33594 l 58.01172,-157.3125 c 1.95421,-5.29876 7.58065,-8.28024 13.0625,-6.92188 z M 122.16797,331.87109 79.998047,442.32812 h 16.429687 c 22.021756,-2e-4 41.658116,-13.86502 49.027346,-34.61718 l 9.36133,-26.36328 c 3.12527,-8.70814 8.07645,-16.64735 14.52148,-23.28516 -5.08162,-2.49361 -10.13226,-5.0508 -15.13477,-7.70117 -10.88167,-5.78096 -21.57918,-11.94378 -32.03515,-18.49024 z m 287.13476,78.57227 c -14.3917,1.64055 -28.94563,1.93488 -43.4082,1.33008 -2.49389,-0.11176 -4.98241,-0.29358 -7.47265,-0.45508 8.32805,18.73649 26.85005,30.86575 47.35351,31.00976 h 15.67969 z" />
    <text
       xml:space="preserve"
       style="font-size:363.249px;font-family:sans-serif;-inkscape-font-specification:sans-serif;text-align:start;writing-mode:lr-tb;direction:ltr;text-anchor:start;opacity:1;fill:#00bbed;fill-opacity:1;stroke:none;stroke-width:10.8;stroke-linecap:round;paint-order:markers stroke fill"
       x="490.18378"
       y="436.44138"
       id="text5"><tspan
         sodipodi:role="line"
         id="tspan5"
         x="490.18378"
         y="436.44138"
         style="fill:#00bbed;fill-opacity:1;stroke-width:10.8">array<tspan
   style="fill:#1a1a1a;fill-opacity:1;stroke-width:10.8"
   id="tspan6">linux</tspan></tspan></text>
  </g>
</svg>
